# xmcd
#
# Track frame offsets:
#	150
#	8504
#	22249
#	38516
#	51308
#	64457
#	83729
#	99006
#	115206
#	131800
#	145210
#	161057
#	176619
#	194543
#	209623
#	224630
#	259854
#	263393
#	276113
#	290820
#
# Disc length: 4062 seconds
#
# Revision: 0
# Processed by: cddbd v1.4PL0 Copyright (c) Steve Scherf et al.
# Submitted via: dBpowerAMP V4.0
#
DISCID=330fdc14
DTITLE=The Blues Brothers - The Definitive Collection
DYEAR=1992
DGENRE=Blues
TTITLE0=Opening: I can't turn you loose
TTITLE1=Hey bartender
TTITLE2=Messin' with the kid
TTITLE3=(I got everything I need) Almost
TTITLE4=Rubber biscuit
TTITLE5=I don't know
TTITLE6=Soul man
TTITLE7=Who's making love
TTITLE8=Do you love me - Mother popcorn (You got to have a mother for me)
TTITLE9=Guilty
TTITLE10=Riot in cell block number nine
TTITLE11=From the bottom
TTITLE12=Going back to miami
TTITLE13=Everybody needs somebody to love
TTITLE14=Expressway to your heart
TTITLE15=Sweet home chicago
TTITLE16=Closing: I can't turn you loose
TTITLE17=Shake your tailfeather (featuring Ray Charles)
TTITLE18=Think (featuring Aretha Franklin)
TTITLE19=Gimme some lovin'
EXTD=
EXTT0=
EXTT1=
EXTT2=
EXTT3=
EXTT4=
EXTT5=
EXTT6=
EXTT7=
EXTT8=
EXTT9=
EXTT10=
EXTT11=
EXTT12=
EXTT13=
EXTT14=
EXTT15=
EXTT16=
EXTT17=
EXTT18=
EXTT19=
PLAYORDER=
